PathFileType	4	(X/Y/Z)	/Users/itak/Documents/Research/Walk-IL/dataset/trc/00333_00011.trc
DataRate	CameraRate	NumFrames	NumMarkers	Units	OrigDataRate	OrigDataStartFrame	OrigNumFrames
100.000000	100.000000	4	54	mm	100.000000	379	506
Frame#	Time	RPSI			LPSI			L3			STRN			T10			C7			CLAV			RBAK			LBAK			LSHO			LUPA			LAEL			LAOL			LWTS			LWPS			LFRA			LIFD			LHPS			LHTS			RSHO			RUPA			RAEL			RAOL			RWTS			RWPS			RFRA			RIFD			RHTS			RHPS			RBHD			LFHD			RFHD			LBHD			LHIP			RHIP			RASI			LASI			LKNE			LTHI			LANK			LTIP			LTOE			LMT5			LHEE			RKNE			RTHI			RANK			RTIP			RTOE			RMT1			RMT5			RHEE			LMT1			*53			
		X1	Y1	Z1	X2	Y2	Z2	X3	Y3	Z3	X4	Y4	Z4	X5	Y5	Z5	X6	Y6	Z6	X7	Y7	Z7	X8	Y8	Z8	X9	Y9	Z9	X10	Y10	Z10	X11	Y11	Z11	X12	Y12	Z12	X13	Y13	Z13	X14	Y14	Z14	X15	Y15	Z15	X16	Y16	Z16	X17	Y17	Z17	X18	Y18	Z18	X19	Y19	Z19	X20	Y20	Z20	X21	Y21	Z21	X22	Y22	Z22	X23	Y23	Z23	X24	Y24	Z24	X25	Y25	Z25	X26	Y26	Z26	X27	Y27	Z27	X28	Y28	Z28	X29	Y29	Z29	X30	Y30	Z30	X31	Y31	Z31	X32	Y32	Z32	X33	Y33	Z33	X34	Y34	Z34	X35	Y35	Z35	X36	Y36	Z36	X37	Y37	Z37	X38	Y38	Z38	X39	Y39	Z39	X40	Y40	Z40	X41	Y41	Z41	X42	Y42	Z42	X43	Y43	Z43	X44	Y44	Z44	X45	Y45	Z45	X46	Y46	Z46	X47	Y47	Z47	X48	Y48	Z48	X49	Y49	Z49	X50	Y50	Z50	X51	Y51	Z51	X52	Y52	Z52	X53	Y53	Z53	X54	Y54	Z54	

380	3.79	-753.6293334960938	969.638427734375	152.0362701416016	-755.2212524414062	973.7091674804688	22.29270553588867	-759.1951904296875	1039.82568359375	86.45506286621094	-498.1616516113281	1200.236938476562	70.22053527832031	-747.1617431640625	1159.32080078125	75.84322357177734	-679.03857421875	1401.210327148438	60.47531509399414	-530.2803344726562	1328.830200195312	66.06968688964844	-743.0289306640625	1269.438232421875	127.9242172241211	-693.3353881835938	1366.419799804688	-40.15271377563477	-606.7766723632812	1375.175537109375	-95.93952178955078	-640.6533203125	1260.1640625	-165.0569305419922	-651.4227294921875	1058.781982421875	-188.5669860839844	-705.3301391601562	1047.668334960938	-124.7218322753906	-587.6952514648438	802.774658203125	-183.1576232910156	-638.1177978515625	804.7142944335938	-231.47412109375	-653.9560546875	955.4935302734375	-206.8318786621094	-609.2893676757812	642.428466796875	-201.4617614746094	-651.178955078125	735.5413208007812	-233.0863952636719	-590.865234375	727.495849609375	-210.5068054199219	-626.3726196289062	1383.360107421875	221.6162567138672	-642.6319580078125	1321.019165039062	287.5211486816406	-622.9505615234375	1058.700927734375	346.7700500488281	-667.2146606445312	1039.885375976562	263.5823364257812	-484.4192199707031	845.8607788085938	307.3509521484375	-514.5106201171875	828.1666259765625	375.3984375	-590.804443359375	993.6073608398438	360.4505615234375	-448.5992736816406	674.9765014648438	319.4417114257812	-443.0085144042969	748.384033203125	322.0811462402344	-489.759033203125	745.34814453125	372.8185119628906	-620.6980590820312	1600.495361328125	140.4275665283203	-446.8078308105469	1598.896850585938	23.69196319580078	-458.8557434082031	1602.496215820312	124.8485946655273	-631.896728515625	1592.174194335938	-4.131727695465088	-676.86279296875	909.7517700195312	-84.15927886962891	-667.7103271484375	921.8063354492188	259.1029052734375	-568.0164794921875	949.1777954101562	205.7614288330078	-551.4005737304688	930.2622680664062	-32.53688049316406	-645.5630493164062	444.9843444824219	-36.8830680847168	-642.4981079101562	587.7532348632812	-57.99467468261719	-854.6315307617188	68.36124420166016	4.950148582458496	-747.1268920898438	244.1587677001953	-25.21979904174805	-648.2818603515625	38.07842636108398	50.73246383666992	-733.7257690429688	54.89495468139648	-14.73039627075195	-887.7713012695312	69.25002288818359	72.88201904296875	-452.8373107910156	493.9031066894531	217.1686401367188	-533.6661376953125	737.8670043945312	262.5559692382812	-552.269287109375	82.984130859375	194.2213745117188	-454.2264709472656	373.3078308105469	208.5853881835938	-358.957763671875	65.79794311523438	144.8824615478516	-415.9085693359375	66.18447875976562	103.2983932495117	-452.816162109375	61.46307754516602	213.6782073974609	-603.8960571289062	88.45613861083984	146.8239593505859	-717.4068603515625	34.57723999023438	96.8719482421875	nan	nan	nan	
381	3.8	-757.8021850585938	971.3756713867188	151.8296508789062	-759.5985107421875	975.144775390625	22.1335391998291	-763.0771484375	1040.405151367188	86.61598205566406	-503.0992126464844	1201.579956054688	69.97930908203125	-752.0011596679688	1160.273315429688	76.10273742675781	-684.2882080078125	1402.276000976562	60.83758544921875	-535.366455078125	1330.16455078125	66.03092193603516	-747.8850708007812	1270.275390625	128.25244140625	-698.68994140625	1367.64501953125	-39.77412414550781	-612.2756958007812	1376.701049804688	-95.67494964599609	-646.6255493164062	1262.0888671875	-165.0648651123047	-658.6224975585938	1060.921508789062	-189.1473999023438	-712.0772094726562	1049.819458007812	-124.9297256469727	-597.7496337890625	804.0245971679688	-185.6544799804688	-648.5489501953125	806.9658203125	-233.5982666015625	-662.2662963867188	957.8512573242188	-207.8166198730469	-621.7256469726562	644.0032348632812	-205.0165710449219	-662.6552734375	737.9935913085938	-235.5397796630859	-602.1769409179688	729.4352416992188	-213.1992645263672	-631.3447875976562	1384.461669921875	221.7326965332031	-647.3627319335938	1322.22314453125	287.7450866699219	-626.861572265625	1060.029052734375	347.3435974121094	-671.2825927734375	1041.002075195312	264.3285827636719	-487.0477600097656	848.2181396484375	307.0136108398438	-516.727783203125	830.10791015625	375.1308288574219	-594.3511352539062	995.0469970703125	360.907958984375	-449.5235900878906	677.6893920898438	318.6758422851562	-444.6495666503906	751.1510009765625	321.4677429199219	-491.2235717773438	747.5457763671875	372.3288269042969	-626.209228515625	1601.6455078125	140.6100616455078	-452.4137268066406	1600.190551757812	23.73050689697266	-464.3977355957031	1603.817993164062	124.8977584838867	-637.4880981445312	1593.271362304688	-3.954140186309814	-681.7643432617188	910.62255859375	-84.32212066650391	-671.9235229492188	923.4783325195312	258.904052734375	-572.1121826171875	950.282958984375	205.3176116943359	-556.0960693359375	931.0410766601562	-33.03913116455078	-650.5723876953125	445.7302856445312	-37.16450500488281	-647.5955200195312	588.53857421875	-58.17170715332031	-855.2241821289062	66.83199310302734	5.274680137634277	-750.0758666992188	244.0777282714844	-25.23892593383789	-648.40966796875	38.17797088623047	50.77163696289062	-734.1438598632812	54.59823608398438	-14.62778186798096	-888.2511596679688	67.44497680664062	73.27686309814453	-460.7703552246094	493.7391357421875	216.8978424072266	-538.5554809570312	738.646728515625	261.3750305175781	-574.3262329101562	86.25262451171875	195.0581359863281	-466.1566162109375	373.0714721679688	208.5091857910156	-381.69873046875	65.18907165527344	145.6359252929688	-438.5847473144531	65.68011474609375	103.9897994995117	-475.4845886230469	62.59211349487305	214.3558654785156	-625.8005981445312	93.03543853759766	147.6307220458984	-717.435302734375	34.51787948608398	96.92238616943359	nan	nan	nan	
382	3.81	-761.8933715820312	972.9024047851562	151.6933441162109	-763.8980102539062	976.3853149414062	22.04026031494141	-766.63916015625	1040.742919921875	86.84723663330078	-507.9356689453125	1202.712524414062	69.69893646240234	-756.7695922851562	1161.004028320312	76.43238067626953	-689.466796875	1403.117309570312	61.25600433349609	-540.3704223632812	1331.277221679688	65.98134613037109	-752.6337280273438	1270.885864257812	128.67138671875	-704.0112915039062	1368.65771484375	-39.32384872436523	-617.7680053710938	1378.022583007812	-95.38078308105469	-652.6881713867188	1263.848388671875	-165.0390625	-665.892333984375	1062.901977539062	-189.7532196044922	-718.8909301757812	1051.780151367188	-125.1684188842773	-607.421630859375	805.2974853515625	-188.0080108642578	-658.5379028320312	809.073486328125	-235.583251953125	-670.50048828125	960.0110473632812	-208.800048828125	-633.3215942382812	645.5894775390625	-208.2576751708984	-673.5101928710938	740.2807006835938	-237.7977752685547	-612.9119262695312	731.3938598632812	-215.6077423095703	-636.14208984375	1385.326171875	221.8981628417969	-651.9097290039062	1323.182373046875	288.0110778808594	-630.6246337890625	1061.128051757812	348.0369873046875	-675.2568359375	1041.8857421875	265.22021484375	-489.6143188476562	850.3321533203125	306.7532348632812	-518.8370361328125	831.8244018554688	374.9371948242188	-597.7684326171875	996.2622680664062	361.4758911132812	-450.4083862304688	680.1764526367188	317.9539489746094	-446.2420959472656	753.6647338867188	320.9035034179688	-492.6062316894531	749.5093994140625	371.9026794433594	-631.6466064453125	1602.568969726562	140.8674926757812	-457.9837036132812	1601.319702148438	23.80129051208496	-469.8885803222656	1604.949951171875	124.9816589355469	-643.0369262695312	1594.168579101562	-3.703654289245605	-686.5958862304688	911.3136596679688	-84.42568206787109	-676.0523681640625	924.9083862304688	258.7481384277344	-576.1088256835938	951.1566772460938	204.9357147216797	-560.7285766601562	931.6416625976562	-33.47505569458008	-655.7262573242188	446.3293762207031	-37.46747589111328	-652.7821655273438	589.1539306640625	-58.33847808837891	-855.8679809570312	65.17259979248047	5.512184619903564	-753.1221313476562	243.8739471435547	-25.31689453125	-648.58935546875	38.31705474853516	50.81325531005859	-734.5835571289062	54.26734161376953	-14.56191444396973	-888.7752685546875	65.47940063476562	73.59494781494141	-468.8723449707031	493.3048400878906	216.7572784423828	-543.4287109375	739.1006469726562	260.1419372558594	-596.3877563476562	89.74980926513672	196.2225799560547	-478.2201538085938	372.6989135742188	208.6080017089844	-404.5626525878906	64.57305145263672	146.6958465576172	-461.3849487304688	65.22242736816406	104.9966812133789	-498.2410888671875	63.84735107421875	215.3598175048828	-647.6612548828125	97.80138397216797	148.7007293701172	-717.551513671875	34.44572830200195	96.96981048583984	nan	nan	nan	
383	3.82	-765.9087524414062	974.2074584960938	151.6338653564453	-768.1341552734375	977.418701171875	22.01726150512695	-769.9198608398438	1040.851440429688	87.12895202636719	-512.6724243164062	1203.628295898438	69.37973022460938	-761.4654541015625	1161.505249023438	76.81371307373047	-694.5732421875	1403.729736328125	61.72133636474609	-545.2942504882812	1332.161743164062	65.92195892333984	-757.2816772460938	1271.26806640625	129.1701354980469	-709.294189453125	1369.447387695312	-38.81316375732422	-623.2449951171875	1379.125366210938	-95.06568145751953	-658.8259887695312	1265.42041015625	-164.9784698486328	-673.2319946289062	1064.698608398438	-190.3725128173828	-725.7599487304688	1053.53271484375	-125.4156036376953	-616.7053833007812	806.5559692382812	-190.2311401367188	-668.1026611328125	810.9994506835938	-237.4315948486328	-678.6657104492188	961.9445190429688	-209.7767944335938	-644.075439453125	647.1317749023438	-211.2114105224609	-683.7539672851562	742.3571166992188	-239.8679809570312	-623.0775756835938	733.2828369140625	-217.7765808105469	-640.7728271484375	1385.946166992188	222.1095428466797	-656.282470703125	1323.885986328125	288.3130493164062	-634.2237548828125	1061.989868164062	348.8357849121094	-679.1322021484375	1042.522827148438	266.2519836425781	-492.1291198730469	852.17626953125	306.5546569824219	-520.83935546875	833.30322265625	374.8134765625	-601.037841796875	997.245361328125	362.1340942382812	-451.2840576171875	682.40576171875	317.2874450683594	-447.8053894042969	755.8963012695312	320.3812255859375	-493.9132385253906	751.2230224609375	371.5438842773438	-637.0158081054688	1603.259033203125	141.1969909667969	-463.5172119140625	1602.28564453125	23.90875816345215	-475.3303833007812	1605.891845703125	125.1049423217773	-648.5452270507812	1594.863403320312	-3.383269548416138	-691.366455078125	911.8158569335938	-84.46585845947266	-680.0977783203125	926.083984375	258.6407165527344	-580.0184936523438	951.7852783203125	204.6166076660156	-565.3046875	932.0568237304688	-33.84677124023438	-661.0488891601562	446.7890930175781	-37.80572128295898	-658.0877075195312	589.6028442382812	-58.50284576416016	-856.562744140625	63.40202331542969	5.64393138885498	-756.2635498046875	243.5459442138672	-25.46786308288574	-648.8267211914062	38.50278854370117	50.8533935546875	-735.0404052734375	53.90605163574219	-14.54038333892822	-889.3475341796875	63.36487197875977	73.81791687011719	-477.1337280273438	492.5933837890625	216.743896484375	-548.3317260742188	739.2106323242188	258.9204711914062	-618.32177734375	93.42743682861328	197.7167816162109	-490.3728637695312	372.1844787597656	208.8775634765625	-427.4235534667969	63.95365905761719	148.0346984863281	-484.1893005371094	64.83008575439453	106.3029861450195	-520.9420776367188	65.22016906738281	216.6850280761719	-669.3648071289062	102.6910705566406	150.0599670410156	-717.7791748046875	34.34966659545898	97.02383422851562	nan	nan	nan	
